<svg width="24" height="24" viewBox="0 0 24 24" fill="none" xmlns="http://www.w3.org/2000/svg">
<path d="M2.41033 23.3333C1.73678 23.3333 1.16667 23.1 0.7 22.6333C0.233333 22.1667 0 21.5966 0 20.923V3.077C0 2.40344 0.233333 1.83333 0.7 1.36667C1.16667 0.9 1.73678 0.666667 2.41033 0.666667H14.6153V2.66667H2.41033C2.29056 2.66667 2.19222 2.70511 2.11533 2.782C2.03844 2.85889 2 2.95722 2 3.077V20.923C2 21.0428 2.03844 21.1411 2.11533 21.218C2.19222 21.2949 2.29056 21.3333 2.41033 21.3333H20.2563C20.3761 21.3333 20.4744 21.2949 20.5513 21.218C20.6282 21.1411 20.6667 21.0428 20.6667 20.923V8.718H22.6667V20.923C22.6667 21.5966 22.4333 22.1667 21.9667 22.6333C21.5 23.1 20.9299 23.3333 20.2563 23.3333H2.41033ZM5.154 18.3333H7.15367V9.66667H5.154V18.3333ZM10.3333 18.3333H12.3333V5.66667H10.3333V18.3333ZM15.5127 18.3333H17.5127V13.6667H15.5127V18.3333ZM18.6667 7.33333V4.66667H16V2.66667H18.6667V0H20.6667V2.66667H23.3333V4.66667H20.6667V7.33333H18.6667Z" fill="#1C1B1F"/>
</svg>
